<svg xmlns="http://www.w3.org/2000/svg" viewBox="0 0 1200 675" width="1200" height="675" role="img">
<defs><linearGradient id="bg" x1="0" y1="0" x2="1" y2="1"><stop offset="0" stop-color="#1c1713"/><stop offset="1" stop-color="#0c0c10"/></linearGradient>
<radialGradient id="gl"><stop offset="0" stop-color="#62a8ff" stop-opacity=".3"/><stop offset="1" stop-color="#62a8ff" stop-opacity="0"/></radialGradient>
<marker id="ar" markerWidth="12" markerHeight="12" refX="9" refY="6" orient="auto"><path d="M0 0 L12 6 L0 12 Z" fill="#62a8ff"/></marker></defs>
<rect width="1200" height="675" fill="url(#bg)"/><ellipse cx="900" cy="110" rx="520" ry="340" fill="url(#gl)"/>
<rect x="60" y="66" width="1080" height="52" fill="#241d18"/><rect x="82" y="75" width="24" height="16" rx="4" fill="#0c0c10"/><rect x="82" y="93" width="24" height="16" rx="4" fill="#0c0c10"/><rect x="144" y="75" width="24" height="16" rx="4" fill="#0c0c10"/><rect x="144" y="93" width="24" height="16" rx="4" fill="#0c0c10"/><rect x="206" y="75" width="24" height="16" rx="4" fill="#0c0c10"/><rect x="206" y="93" width="24" height="16" rx="4" fill="#0c0c10"/><rect x="268" y="75" width="24" height="16" rx="4" fill="#0c0c10"/><rect x="268" y="93" width="24" height="16" rx="4" fill="#0c0c10"/><rect x="330" y="75" width="24" height="16" rx="4" fill="#0c0c10"/><rect x="330" y="93" width="24" height="16" rx="4" fill="#0c0c10"/><rect x="392" y="75" width="24" height="16" rx="4" fill="#0c0c10"/><rect x="392" y="93" width="24" height="16" rx="4" fill="#0c0c10"/><rect x="454" y="75" width="24" height="16" rx="4" fill="#0c0c10"/><rect x="454" y="93" width="24" height="16" rx="4" fill="#0c0c10"/><rect x="516" y="75" width="24" height="16" rx="4" fill="#0c0c10"/><rect x="516" y="93" width="24" height="16" rx="4" fill="#0c0c10"/><rect x="578" y="75" width="24" height="16" rx="4" fill="#0c0c10"/><rect x="578" y="93" width="24" height="16" rx="4" fill="#0c0c10"/><rect x="640" y="75" width="24" height="16" rx="4" fill="#0c0c10"/><rect x="640" y="93" width="24" height="16" rx="4" fill="#0c0c10"/><rect x="702" y="75" width="24" height="16" rx="4" fill="#0c0c10"/><rect x="702" y="93" width="24" height="16" rx="4" fill="#0c0c10"/><rect x="764" y="75" width="24" height="16" rx="4" fill="#0c0c10"/><rect x="764" y="93" width="24" height="16" rx="4" fill="#0c0c10"/><rect x="826" y="75" width="24" height="16" rx="4" fill="#0c0c10"/><rect x="826" y="93" width="24" height="16" rx="4" fill="#0c0c10"/><rect x="888" y="75" width="24" height="16" rx="4" fill="#0c0c10"/><rect x="888" y="93" width="24" height="16" rx="4" fill="#0c0c10"/><rect x="950" y="75" width="24" height="16" rx="4" fill="#0c0c10"/><rect x="950" y="93" width="24" height="16" rx="4" fill="#0c0c10"/><rect x="1012" y="75" width="24" height="16" rx="4" fill="#0c0c10"/><rect x="1012" y="93" width="24" height="16" rx="4" fill="#0c0c10"/><rect x="1074" y="75" width="24" height="16" rx="4" fill="#0c0c10"/><rect x="1074" y="93" width="24" height="16" rx="4" fill="#0c0c10"/><rect x="96" y="410" width="67" height="60" rx="7" fill="#62a8ff" opacity="1.00"/><rect x="187" y="390" width="67" height="80" rx="7" fill="#e8dcc8" opacity="0.43"/><rect x="278" y="360" width="67" height="110" rx="7" fill="#e8dcc8" opacity="0.37"/><rect x="369" y="320" width="67" height="150" rx="7" fill="#e8dcc8" opacity="0.31"/><rect x="460" y="270" width="67" height="200" rx="7" fill="#e8dcc8" opacity="0.24"/><rect x="551" y="210" width="67" height="260" rx="7" fill="#e8dcc8" opacity="0.18"/><rect x="642" y="140" width="67" height="330" rx="7" fill="#e8dcc8" opacity="0.24"/><rect x="733" y="70" width="67" height="400" rx="7" fill="#e8dcc8" opacity="0.31"/><rect x="824" y="170" width="67" height="300" rx="7" fill="#e8dcc8" opacity="0.37"/><rect x="915" y="350" width="67" height="120" rx="7" fill="#e8dcc8" opacity="0.43"/><rect x="1006" y="410" width="67" height="60" rx="7" fill="#62a8ff" opacity="1.00"/><rect x="96" y="474" width="1010" height="3" fill="#241d18"/></svg>
