<svg xmlns="http://www.w3.org/2000/svg" viewBox="0 0 1200 675" width="1200" height="675" role="img">
<defs><linearGradient id="bg" x1="0" y1="0" x2="1" y2="1"><stop offset="0" stop-color="#1c1713"/><stop offset="1" stop-color="#0c0c10"/></linearGradient>
<radialGradient id="gl"><stop offset="0" stop-color="#62a8ff" stop-opacity=".3"/><stop offset="1" stop-color="#62a8ff" stop-opacity="0"/></radialGradient>
<marker id="ar" markerWidth="12" markerHeight="12" refX="9" refY="6" orient="auto"><path d="M0 0 L12 6 L0 12 Z" fill="#62a8ff"/></marker></defs>
<rect width="1200" height="675" fill="url(#bg)"/><ellipse cx="900" cy="110" rx="520" ry="340" fill="url(#gl)"/>
<g transform="translate(360 320)"><rect x="-46" y="-140" width="92" height="200" rx="46" fill="#241d18" stroke="#62a8ff" stroke-width="5"/><line x1="-38" y1="-120" x2="38" y2="-120" stroke="#62a8ff" stroke-width="3" opacity=".5"/><line x1="-38" y1="-90" x2="38" y2="-90" stroke="#62a8ff" stroke-width="3" opacity=".5"/><line x1="-38" y1="-60" x2="38" y2="-60" stroke="#62a8ff" stroke-width="3" opacity=".5"/><line x1="-38" y1="-30" x2="38" y2="-30" stroke="#62a8ff" stroke-width="3" opacity=".5"/><line x1="-38" y1="0" x2="38" y2="0" stroke="#62a8ff" stroke-width="3" opacity=".5"/><line x1="-38" y1="30" x2="38" y2="30" stroke="#62a8ff" stroke-width="3" opacity=".5"/><path d="M-80 20 A80 80 0 0 0 80 20" fill="none" stroke="#62a8ff" stroke-width="6"/><line x1="0" y1="100" x2="0" y2="160" stroke="#62a8ff" stroke-width="6"/></g><path d="M620 277.5 A110 110 0 0 1 620 398.5" fill="none" stroke="#62a8ff" stroke-width="5" opacity="0.60"/><path d="M620 250.0 A160 160 0 0 1 620 426.0" fill="none" stroke="#62a8ff" stroke-width="5" opacity="0.44"/><path d="M620 222.5 A210 210 0 0 1 620 453.5" fill="none" stroke="#62a8ff" stroke-width="5" opacity="0.28"/><rect x="760" y="240" width="320" height="200" rx="12" fill="#241d18" stroke="#4a3a2c" stroke-width="3"/><rect x="792" y="276" width="240" height="12" rx="6" fill="#3a322b"/><rect x="792" y="314" width="200" height="12" rx="6" fill="#3a322b"/><rect x="792" y="352" width="160" height="12" rx="6" fill="#3a322b"/><rect x="792" y="390" width="120" height="12" rx="6" fill="#3a322b"/></svg>
