<svg xmlns="http://www.w3.org/2000/svg" viewBox="0 0 1200 675" width="1200" height="675" role="img">
<defs><linearGradient id="bg" x1="0" y1="0" x2="1" y2="1"><stop offset="0" stop-color="#1c1713"/><stop offset="1" stop-color="#0c0c10"/></linearGradient>
<radialGradient id="gl"><stop offset="0" stop-color="#ffb03a" stop-opacity=".3"/><stop offset="1" stop-color="#ffb03a" stop-opacity="0"/></radialGradient>
<marker id="ar" markerWidth="12" markerHeight="12" refX="9" refY="6" orient="auto"><path d="M0 0 L12 6 L0 12 Z" fill="#ffb03a"/></marker></defs>
<rect width="1200" height="675" fill="url(#bg)"/><ellipse cx="900" cy="110" rx="520" ry="340" fill="url(#gl)"/>
<rect x="60" y="66" width="1080" height="52" fill="#241d18"/><rect x="82" y="75" width="24" height="16" rx="4" fill="#0c0c10"/><rect x="82" y="93" width="24" height="16" rx="4" fill="#0c0c10"/><rect x="144" y="75" width="24" height="16" rx="4" fill="#0c0c10"/><rect x="144" y="93" width="24" height="16" rx="4" fill="#0c0c10"/><rect x="206" y="75" width="24" height="16" rx="4" fill="#0c0c10"/><rect x="206" y="93" width="24" height="16" rx="4" fill="#0c0c10"/><rect x="268" y="75" width="24" height="16" rx="4" fill="#0c0c10"/><rect x="268" y="93" width="24" height="16" rx="4" fill="#0c0c10"/><rect x="330" y="75" width="24" height="16" rx="4" fill="#0c0c10"/><rect x="330" y="93" width="24" height="16" rx="4" fill="#0c0c10"/><rect x="392" y="75" width="24" height="16" rx="4" fill="#0c0c10"/><rect x="392" y="93" width="24" height="16" rx="4" fill="#0c0c10"/><rect x="454" y="75" width="24" height="16" rx="4" fill="#0c0c10"/><rect x="454" y="93" width="24" height="16" rx="4" fill="#0c0c10"/><rect x="516" y="75" width="24" height="16" rx="4" fill="#0c0c10"/><rect x="516" y="93" width="24" height="16" rx="4" fill="#0c0c10"/><rect x="578" y="75" width="24" height="16" rx="4" fill="#0c0c10"/><rect x="578" y="93" width="24" height="16" rx="4" fill="#0c0c10"/><rect x="640" y="75" width="24" height="16" rx="4" fill="#0c0c10"/><rect x="640" y="93" width="24" height="16" rx="4" fill="#0c0c10"/><rect x="702" y="75" width="24" height="16" rx="4" fill="#0c0c10"/><rect x="702" y="93" width="24" height="16" rx="4" fill="#0c0c10"/><rect x="764" y="75" width="24" height="16" rx="4" fill="#0c0c10"/><rect x="764" y="93" width="24" height="16" rx="4" fill="#0c0c10"/><rect x="826" y="75" width="24" height="16" rx="4" fill="#0c0c10"/><rect x="826" y="93" width="24" height="16" rx="4" fill="#0c0c10"/><rect x="888" y="75" width="24" height="16" rx="4" fill="#0c0c10"/><rect x="888" y="93" width="24" height="16" rx="4" fill="#0c0c10"/><rect x="950" y="75" width="24" height="16" rx="4" fill="#0c0c10"/><rect x="950" y="93" width="24" height="16" rx="4" fill="#0c0c10"/><rect x="1012" y="75" width="24" height="16" rx="4" fill="#0c0c10"/><rect x="1012" y="93" width="24" height="16" rx="4" fill="#0c0c10"/><rect x="1074" y="75" width="24" height="16" rx="4" fill="#0c0c10"/><rect x="1074" y="93" width="24" height="16" rx="4" fill="#0c0c10"/><rect x="96" y="296" width="210" height="70" rx="10" fill="#ffb03a" opacity="0.85"/><rect x="316" y="296" width="90" height="70" rx="10" fill="#3a322b" opacity="1"/><rect x="416" y="296" width="300" height="70" rx="10" fill="#ffb03a" opacity="0.85"/><rect x="726" y="296" width="70" height="70" rx="10" fill="#3a322b" opacity="1"/><rect x="806" y="296" width="300" height="70" rx="10" fill="#ffb03a" opacity="0.85"/><line x1="96" y1="416" x2="1106" y2="416" stroke="#4a3a2c" stroke-width="3"/><line x1="96" y1="416" x2="96" y2="436" stroke="#4a3a2c" stroke-width="3"/><line x1="197" y1="416" x2="197" y2="436" stroke="#4a3a2c" stroke-width="3"/><line x1="298" y1="416" x2="298" y2="436" stroke="#4a3a2c" stroke-width="3"/><line x1="399" y1="416" x2="399" y2="436" stroke="#4a3a2c" stroke-width="3"/><line x1="500" y1="416" x2="500" y2="436" stroke="#4a3a2c" stroke-width="3"/><line x1="601" y1="416" x2="601" y2="436" stroke="#4a3a2c" stroke-width="3"/><line x1="702" y1="416" x2="702" y2="436" stroke="#4a3a2c" stroke-width="3"/><line x1="803" y1="416" x2="803" y2="436" stroke="#4a3a2c" stroke-width="3"/><line x1="904" y1="416" x2="904" y2="436" stroke="#4a3a2c" stroke-width="3"/><line x1="1005" y1="416" x2="1005" y2="436" stroke="#4a3a2c" stroke-width="3"/><line x1="1106" y1="416" x2="1106" y2="436" stroke="#4a3a2c" stroke-width="3"/></svg>
