<svg xmlns="http://www.w3.org/2000/svg" viewBox="0 0 1200 675" width="1200" height="675" role="img">
<defs><linearGradient id="bg" x1="0" y1="0" x2="1" y2="1"><stop offset="0" stop-color="#1c1713"/><stop offset="1" stop-color="#0c0c10"/></linearGradient>
<radialGradient id="gl"><stop offset="0" stop-color="#5ec9a7" stop-opacity=".3"/><stop offset="1" stop-color="#5ec9a7" stop-opacity="0"/></radialGradient>
<marker id="ar" markerWidth="12" markerHeight="12" refX="9" refY="6" orient="auto"><path d="M0 0 L12 6 L0 12 Z" fill="#5ec9a7"/></marker></defs>
<rect width="1200" height="675" fill="url(#bg)"/><ellipse cx="900" cy="110" rx="520" ry="340" fill="url(#gl)"/>
<rect x="110" y="450" width="88" height="58" fill="#5ec9a7" opacity="0.35"/><rect x="198" y="392" width="88" height="116" fill="#5ec9a7" opacity="0.48"/><rect x="286" y="334" width="88" height="174" fill="#5ec9a7" opacity="0.61"/><rect x="374" y="276" width="88" height="232" fill="#5ec9a7" opacity="0.74"/><rect x="462" y="218" width="88" height="290" fill="#5ec9a7" opacity="0.87"/><rect x="800" y="150" width="300" height="360" fill="#3a1c16" stroke="#ff5c39" stroke-width="5"/><line x1="800" y1="150" x2="1100" y2="150" stroke="#ff5c39" stroke-width="2" opacity=".35"/><line x1="800" y1="195" x2="1100" y2="195" stroke="#ff5c39" stroke-width="2" opacity=".35"/><line x1="800" y1="240" x2="1100" y2="240" stroke="#ff5c39" stroke-width="2" opacity=".35"/><line x1="800" y1="285" x2="1100" y2="285" stroke="#ff5c39" stroke-width="2" opacity=".35"/><line x1="800" y1="330" x2="1100" y2="330" stroke="#ff5c39" stroke-width="2" opacity=".35"/><line x1="800" y1="375" x2="1100" y2="375" stroke="#ff5c39" stroke-width="2" opacity=".35"/><line x1="800" y1="420" x2="1100" y2="420" stroke="#ff5c39" stroke-width="2" opacity=".35"/><line x1="800" y1="465" x2="1100" y2="465" stroke="#ff5c39" stroke-width="2" opacity=".35"/><line x1="800" y1="510" x2="1100" y2="510" stroke="#ff5c39" stroke-width="2" opacity=".35"/></svg>
